<?xml version="1.0" encoding="UTF-8" standalone="no"?><svg xmlns="http://www.w3.org/2000/svg" xmlns:xlink="http://www.w3.org/1999/xlink" fill="none" height="20" preserveAspectRatio="xMidYMid meet" style="fill: none" version="1" viewBox="2.0 2.0 20.0 20.0" width="20" zoomAndPan="magnify"><g id="change1_1"><path clip-rule="evenodd" d="M2 3C2 2.44772 2.44772 2 3 2H21C21.5523 2 22 2.44772 22 3V21C22 21.5523 21.5523 22 21 22H3C2.44772 22 2 21.5523 2 21V3ZM4 4V20H20V4H4Z" fill="#4be1df" fill-rule="evenodd"/></g><g id="change1_2"><path clip-rule="evenodd" d="M14 8C14 7.44772 14.4477 7 15 7H21C21.5523 7 22 7.44772 22 8V21C22 21.5523 21.5523 22 21 22H15C14.4477 22 14 21.5523 14 21V8ZM16 9V20H20V9H16Z" fill="#4be1df" fill-rule="evenodd"/></g><g id="change1_3"><path clip-rule="evenodd" d="M8 8C8 7.44772 8.44772 7 9 7H15C15.5523 7 16 7.44772 16 8V21C16 21.5523 15.5523 22 15 22H9C8.44772 22 8 21.5523 8 21V8ZM10 9V20H14V9H10Z" fill="#4be1df" fill-rule="evenodd"/></g><g id="change1_4"><path clip-rule="evenodd" d="M2 3C2 2.44772 2.44772 2 3 2H21C21.5523 2 22 2.44772 22 3V8C22 8.55228 21.5523 9 21 9H3C2.44772 9 2 8.55228 2 8V3ZM4 4V7H20V4H4Z" fill="#4be1df" fill-rule="evenodd"/></g></svg>